<?xml version="1.0" encoding="UTF-8" standalone="no"?>
<svg
   width="16"
   height="16"
   version="1.1"
   id="svg1"
   xmlns="http://www.w3.org/2000/svg"
   xmlns:svg="http://www.w3.org/2000/svg">
  <defs
     id="defs1" />
  <path
     fill="#e0e0e0"
     d="M 3,1 C 1.8954305,1 1,1.8954305 1,3 V 9 H 2 V 3 C 2,2.4477153 2.4477153,2 3,2 H 9 V 1 Z m -0.08,9 c -0.9892892,1.128467 -0.282924,2.904276 -0.757,3.908 1.1877975,-0.274684 2.654,0.67 3.538,-0.228 0.8841492,-0.905269 0.8841492,-2.350731 0,-3.256 C 4.601,9.305 3.501,9.34 2.921,10 Z m 2.381,-1.61 2.4,2.441 6.802,-6.917 c 1.627999,-1.5999993 -0.772001,-4.04199931 -2.4,-2.442 z M 14.001,7 v 6 c 0,0.552285 -0.447715,1 -1,1 H 7 v 1 h 6 c 1.104569,0 2,-0.895431 2,-2 V 7 Z"
     id="path1" />
</svg>
