<?xml version="1.0" encoding="UTF-8" standalone="no"?>
<svg
   version="1.0"
   width="512pt"
   height="512pt"
   viewBox="0 0 512 512"
   preserveAspectRatio="xMidYMid"
   id="svg1"
   xmlns="http://www.w3.org/2000/svg"
   xmlns:svg="http://www.w3.org/2000/svg">
  <defs
     id="defs1" />
  <metadata
     id="metadata1">
Created by potrace 1.16, written by Peter Selinger 2001-2019
</metadata>
  <g
     transform="matrix(0.15968856,0,0,-0.15943396,-152.79299,664.15093)"
     fill="#000000"
     stroke="none"
     id="g1">
    <path
       d="m 2186,4128 c -22,-21 -26,-40 -50,-223 -15,-110 -29,-209 -31,-220 -3,-13 -33,-34 -88,-62 -46,-24 -105,-58 -131,-77 l -47,-33 -200,78 c -206,81 -255,92 -281,62 -34,-40 -340,-580 -345,-608 -7,-43 11,-62 193,-204 l 159,-124 1,-156 1,-156 -160,-125 c -183,-143 -201,-162 -194,-205 5,-28 311,-568 345,-607 26,-31 75,-20 280,60 l 199,79 87,-58 c 49,-32 108,-66 132,-75 52,-20 45,2 80,-259 24,-183 28,-202 50,-223 25,-22 26,-22 374,-22 348,0 349,0 374,23 23,20 27,38 50,212 15,105 28,204 31,220 4,26 15,35 65,59 33,16 93,50 133,76 l 72,48 45,-18 c 25,-10 114,-45 198,-79 159,-64 208,-73 234,-43 35,39 340,575 345,605 7,46 -15,69 -200,212 l -156,120 v 155 155 l 169,130 c 174,134 198,162 185,212 -7,28 -316,565 -343,596 -26,29 -75,20 -234,-44 -84,-34 -174,-69 -199,-79 l -46,-19 -47,34 c -26,18 -84,52 -129,76 -45,23 -83,43 -85,44 -2,2 -17,101 -33,221 -28,202 -32,221 -55,242 -25,22 -26,22 -374,22 -348,0 -349,0 -374,-22 z m 486,-1029 c 196,-41 377,-216 423,-410 81,-345 -181,-678 -536,-679 -342,-1 -597,305 -539,647 34,203 207,389 406,437 72,18 175,20 246,5 z"
       id="path1" />
  </g>
</svg>
