<?xml version="1.0" standalone="no"?>
<!DOCTYPE svg PUBLIC "-//W3C//DTD SVG 20010904//EN"
 "http://www.w3.org/TR/2001/REC-SVG-20010904/DTD/svg10.dtd">
<svg version="1.0" xmlns="http://www.w3.org/2000/svg"
 width="512.000000pt" height="512.000000pt" viewBox="0 0 512.000000 512.000000"
 preserveAspectRatio="xMidYMid meet">
<metadata>
Created by potrace 1.16, written by Peter Selinger 2001-2019
</metadata>
<g transform="translate(0.000000,512.000000) scale(0.100000,-0.100000)"
fill="#000000" stroke="none">
<path d="M2455 5114 c-11 -2 -40 -10 -65 -16 -69 -17 -189 -83 -251 -138 -74
-65 -143 -167 -176 -260 -22 -62 -27 -97 -31 -200 -7 -217 43 -356 178 -490
129 -129 255 -180 450 -180 192 0 307 47 440 180 146 146 195 274 188 490 -4
110 -8 134 -35 202 -71 179 -219 324 -394 385 -57 20 -98 26 -179 29 -58 2
-114 1 -125 -2z"/>
<path d="M2457 3200 c-248 -42 -456 -235 -513 -477 -24 -103 -15 -306 18 -394
90 -244 291 -395 549 -414 260 -20 501 117 614 350 49 98 65 173 65 290 0 120
-18 202 -64 293 -129 254 -400 397 -669 352z"/>
<path d="M2385 1272 c-102 -30 -184 -81 -271 -167 -132 -130 -184 -261 -184
-460 0 -132 15 -199 70 -311 121 -247 414 -381 700 -320 228 49 422 242 476
474 23 95 15 284 -15 369 -63 177 -219 337 -391 402 -89 33 -294 40 -385 13z"/>
</g>
</svg>
