<?xml version="1.0" standalone="no"?>
<!DOCTYPE svg PUBLIC "-//W3C//DTD SVG 20010904//EN"
 "http://www.w3.org/TR/2001/REC-SVG-20010904/DTD/svg10.dtd">
<svg version="1.0" xmlns="http://www.w3.org/2000/svg"
 width="1590.000000pt" height="1203.000000pt" viewBox="0 0 1590.000000 1203.000000"
 preserveAspectRatio="xMidYMid meet">
<metadata>
Created by potrace 1.16, written by Peter Selinger 2001-2019
</metadata>
<g transform="translate(0.000000,1203.000000) scale(0.100000,-0.100000)"
fill="#000000" stroke="none">
<path d="M1235 12014 c-307 -55 -561 -199 -821 -465 -207 -213 -316 -408 -382
-682 l-27 -112 0 -4740 0 -4740 23 -104 c64 -286 172 -486 377 -699 233 -243
481 -386 775 -449 82 -17 325 -18 5925 -18 5569 0 5844 1 5925 18 283 59 532
188 738 382 199 188 337 398 416 635 23 69 1698 6388 1712 6459 l7 31 -6405 0
-6405 0 -11 -37 c-6 -21 -365 -1352 -797 -2958 -432 -1606 -790 -2931 -795
-2945 -5 -14 -9 1559 -9 3693 l-1 3717 6385 0 6385 0 0 34 c0 150 -46 383
-105 538 -174 449 -599 804 -1103 920 l-97 23 -2725 2 -2725 3 -755 755 -755
755 -2335 -1 c-1982 -1 -2347 -3 -2415 -15z"/>
</g>
</svg>
