<?xml version="1.0" encoding="UTF-8" standalone="no"?>
<svg
   version="1.0"
   width="512pt"
   height="512pt"
   viewBox="0 0 512 512"
   preserveAspectRatio="xMidYMid"
   id="svg1"
   xmlns="http://www.w3.org/2000/svg"
   xmlns:svg="http://www.w3.org/2000/svg">
  <defs
     id="defs1" />
  <metadata
     id="metadata1">
Created by potrace 1.16, written by Peter Selinger 2001-2019
</metadata>
  <g
     transform="matrix(0.17797082,0,0,-0.17797729,-199.61403,711.66839)"
     fill="#000000"
     stroke="none"
     id="g1">
    <path
       d="m 1330,3973 c -64,-23 -161,-122 -183,-187 -16,-45 -17,-153 -17,-1227 0,-1155 0,-1179 20,-1232 26,-70 75,-125 141,-162 l 54,-30 1194,-3 c 1373,-3 1254,-11 1357,92 101,101 94,32 94,990 v 831 l -473,473 -472,472 -835,-1 c -735,0 -840,-2 -880,-16 z m 2202,-885 200,-208 h -426 -426 v 432 433 l 226,-225 c 124,-124 316,-318 426,-432 z"
       id="path1" />
  </g>
</svg>
