<?xml version="1.0" standalone="no"?>
<!DOCTYPE svg PUBLIC "-//W3C//DTD SVG 20010904//EN"
 "http://www.w3.org/TR/2001/REC-SVG-20010904/DTD/svg10.dtd">
<svg version="1.0" xmlns="http://www.w3.org/2000/svg"
 width="1080.000000pt" height="926.000000pt" viewBox="0 0 1080.000000 926.000000"
 preserveAspectRatio="xMidYMid meet">
<metadata>
Created by potrace 1.16, written by Peter Selinger 2001-2019
</metadata>
<g transform="translate(0.000000,926.000000) scale(0.100000,-0.100000)"
fill="#000000" stroke="none">
<path d="M4175 9244 c-562 -54 -1087 -205 -1583 -453 -827 -414 -1497 -1034
-1954 -1806 -356 -603 -557 -1221 -622 -1914 -21 -217 -21 -663 -1 -882 72
-772 329 -1498 758 -2139 335 -501 778 -937 1303 -1283 653 -429 1305 -665
2069 -749 189 -21 831 -17 1015 5 675 84 1263 277 1832 603 315 180 625 407
851 623 l78 75 -388 388 c-213 213 -392 388 -397 388 -5 0 -66 -55 -135 -123
-493 -483 -1129 -794 -1836 -896 -589 -86 -1254 -23 -1783 169 -521 188 -926
450 -1312 846 -326 335 -563 703 -764 1188 -199 477 -286 899 -286 1381 0 557
115 1043 365 1550 374 758 1005 1368 1758 1699 336 148 758 256 1162 297 153
15 495 16 645 0 543 -55 1086 -239 1568 -531 564 -341 1015 -837 1327 -1460
215 -429 345 -923 361 -1375 2 -77 6 -157 8 -177 l4 -38 -776 0 -777 0 1025
-1025 c970 -970 1027 -1025 1060 -1025 33 0 87 53 1045 1023 l1010 1022 -771
3 -771 2 -6 188 c-33 945 -344 1803 -940 2591 -157 208 -258 324 -446 511
-648 645 -1449 1080 -2311 1254 -149 30 -380 62 -545 76 -168 14 -672 10 -840
-6z"/>
</g>
</svg>
